<?xml version="1.0" encoding="UTF-8" standalone="no"?>
<!-- Created with Inkscape (http://www.inkscape.org/) -->

<svg
   width="210mm"
   height="297mm"
   viewBox="0 0 210 297"
   version="1.1"
   id="svg1"
   xml:space="preserve"
   xmlns="http://www.w3.org/2000/svg"
   xmlns:svg="http://www.w3.org/2000/svg"><defs
     id="defs1" /><g
     id="layer1"><g
       id="g9"
       transform="matrix(3.7745225,0,0,3.7745225,-22.68084,-595.5638)"><path
         style="fill:#264758;fill-opacity:1;stroke-width:0.264583"
         d="m 20.363492,171.88609 12.621461,-4.87943 12.296166,4.87943 -0.06506,7.41674 -12.296167,-5.00955 -12.491343,4.94449 z"
         id="path1" /><path
         style="fill:#a98146;fill-opacity:1;stroke-width:0.264583"
         d="m 20.552412,205.23819 c 0,0 0.975886,-7.69324 7.546853,-6.94506 l 0.06506,13.04435 c 0,0 -5.952906,-1.74033 -7.611913,-6.09929 z"
         id="path8" /><path
         style="fill:#c7a067;fill-opacity:1;stroke-width:0.264583"
         d="m 46.647769,185.94702 7.636618,-11.2249 7.728622,11.77695 -4.140332,-0.46004 c 0,0 1.065739,20.4572 -1.36241,23.68864 -3.409508,4.89002 -6.943753,6.99454 -11.886661,9.52605 -9.844792,5.15242 -11.776951,7.4526 -11.776951,7.4526 v -9.20075 c 0,0 7.417944,-2.59504 13.065055,-7.07307 2.334784,-1.85143 3.404276,-3.04774 3.956318,-8.01615 0.552046,-4.9684 0,-16.1933 0,-16.1933 l -3.423978,0.10616 z"
         id="path2" /><path
         style="fill:#244558;fill-opacity:1;stroke-width:0.264583"
         d="m 45.435887,187.63521 -0.09201,15.66311 c 0,0 0.73606,3.17425 -8.050649,7.63661 l 0.09201,-17.3434 z"
         id="path9" /><path
         style="fill:#aa8141;fill-opacity:1;stroke-width:0.264583"
         d="m 37.083677,179.36788 7.872148,2.92766 v 6.11555 c 0,0 -1.01799,4.67733 -7.573521,7.00052 z"
         id="path5" /><path
         style="fill:#c7a067;fill-opacity:1;stroke-width:0.264583"
         d="m 20.608311,182.1043 8.28067,-2.66822 -0.184015,12.05298 c 0,0 7.91264,-1.56413 11.040891,-5.33644 0,0 1.520999,-1.613 1.728014,-5.15529 l 3.827262,1.43876 0.130119,6.01796 c 0,0 -2.179479,4.68425 -8.099856,6.89626 -6.150912,2.29814 -11.084044,2.56701 -16.781734,9.90616 l -0.01873,-2.00123 z"
         id="path7" /><path
         style="fill:#264758;fill-opacity:1;stroke-width:0.264583"
         d="m 7.6119124,176.83058 8.3926216,-3.31801 -0.195177,29.66694 c 0,0 0.337948,5.72337 9.860717,10.41575 l 7.176581,4.09433 -0.04601,8.83271 c 0,0 -19.045538,-10.71886 -22.035779,-15.31924 -2.9902418,-4.60037 -2.8927214,-6.33202 -2.9577803,-16.80653 z"
         id="path6" /></g></g></svg>
